<?xml version="1.0" standalone="no"?>
<!DOCTYPE svg PUBLIC "-//W3C//DTD SVG 20010904//EN"
 "http://www.w3.org/TR/2001/REC-SVG-20010904/DTD/svg10.dtd">
<svg version="1.0" xmlns="http://www.w3.org/2000/svg"
 width="512.000000pt" height="512.000000pt" viewBox="0 0 512.000000 512.000000"
 preserveAspectRatio="xMidYMid meet">
<metadata>
Created by potrace 1.14, written by Peter Selinger 2001-2017
</metadata>
<g transform="translate(0.000000,512.000000) scale(0.100000,-0.100000)"
fill="#000000" stroke="none">
<path d="M2195 5114 c-96 -11 -186 -32 -310 -71 -329 -104 -547 -147 -643
-127 -93 19 -151 -19 -159 -103 -6 -57 21 -141 64 -205 16 -24 32 -48 36 -55
5 -8 -22 -27 -84 -58 -159 -78 -328 -216 -439 -356 -35 -44 -40 -57 -40 -101
0 -44 4 -54 34 -84 32 -32 38 -34 105 -34 39 0 71 -3 71 -6 0 -3 -11 -19 -25
-36 -14 -16 -28 -41 -31 -55 -9 -36 24 -77 66 -81 29 -3 42 6 146 113 98 100
114 121 114 149 0 21 -8 40 -21 52 -19 17 -35 19 -151 16 l-131 -4 31 38 c94
114 275 238 452 309 103 42 126 55 134 76 15 43 0 73 -56 115 -54 40 -118 116
-118 138 0 9 27 15 89 20 152 11 290 42 558 125 208 64 241 72 349 78 105 7
197 -7 306 -44 76 -26 79 -26 177 -13 104 14 222 10 308 -11 26 -6 119 -33
206 -60 268 -83 406 -114 558 -125 62 -5 89 -11 89 -20 0 -22 -64 -98 -118
-138 -56 -42 -71 -72 -56 -115 8 -21 31 -34 134 -76 178 -72 341 -183 450
-308 l34 -39 -131 4 c-117 3 -133 1 -152 -16 -13 -12 -21 -31 -21 -52 0 -28
14 -47 96 -129 91 -92 174 -205 227 -310 49 -98 119 -327 104 -341 -2 -3 -29
4 -58 16 -67 25 -100 25 -130 2 -20 -17 -23 -31 -30 -128 -4 -60 -10 -129 -14
-154 -9 -60 19 -100 70 -100 43 0 70 33 79 97 17 128 16 125 40 118 94 -29
161 -11 191 51 16 33 16 45 5 113 -38 225 -142 463 -276 628 -19 23 -34 44
-34 47 0 3 32 6 71 6 67 0 73 2 105 34 30 30 34 40 34 84 0 44 -5 57 -40 101
-112 141 -295 289 -447 362 -58 27 -82 43 -76 52 4 6 20 31 36 55 69 102 85
226 36 278 -28 30 -74 43 -114 32 -96 -27 -298 12 -700 136 -178 55 -318 73
-453 57 -101 -12 -110 -11 -167 9 -104 37 -272 56 -380 44z"/>
<path d="M2774 3712 c-35 -28 -45 -57 -53 -158 -4 -52 -10 -97 -13 -100 -10
-9 -159 46 -241 88 -44 23 -125 72 -181 110 -85 57 -108 68 -143 68 -61 0 -88
-28 -128 -135 -29 -77 -37 -90 -55 -88 -44 6 -168 72 -248 133 -69 52 -90 63
-122 63 -84 0 -120 -55 -120 -182 l0 -79 -62 -4 c-110 -7 -210 -74 -260 -176
-21 -43 -23 -62 -26 -243 -3 -178 -1 -200 18 -251 42 -113 130 -181 261 -201
l69 -11 0 -92 c0 -125 15 -221 60 -399 36 -139 39 -178 11 -161 -6 4 -11 15
-11 26 0 55 -96 190 -278 390 -241 264 -341 485 -361 789 -7 112 -10 126 -30
143 -30 23 -63 23 -130 -2 -29 -12 -56 -18 -59 -15 -3 3 7 55 22 116 l28 111
-19 27 c-25 32 -76 40 -104 15 -23 -21 -53 -117 -75 -240 -16 -85 -16 -93 1
-128 29 -60 97 -82 174 -55 18 6 34 10 36 7 2 -2 11 -48 19 -103 44 -295 152
-504 401 -779 70 -77 147 -169 173 -205 42 -58 47 -73 53 -135 6 -62 10 -73
39 -99 30 -27 37 -29 89 -24 31 3 68 9 82 12 24 6 27 3 41 -47 l15 -53 -271
-5 c-247 -5 -276 -8 -324 -27 -120 -48 -206 -140 -247 -262 -21 -61 -25 -66
-53 -69 -34 -3 -72 -42 -72 -72 0 -31 39 -70 71 -70 27 0 29 -2 29 -40 l0 -40
-44 0 c-36 0 -48 -5 -65 -26 -26 -34 -26 -54 0 -88 17 -21 29 -26 65 -26 44 0
44 0 44 -35 0 -32 -2 -35 -29 -35 -32 0 -71 -39 -71 -70 0 -33 39 -70 75 -70
30 0 33 -3 44 -42 6 -24 15 -49 20 -57 6 -9 2 -28 -10 -56 -10 -23 -21 -67
-25 -98 -6 -54 -8 -57 -35 -57 -30 0 -69 -39 -69 -70 0 -31 39 -70 70 -70 l28
0 4 -90 c4 -89 5 -92 41 -128 l37 -37 1700 0 1700 0 37 38 38 37 3 124 c4 119
5 124 28 135 47 21 44 100 -6 126 -17 9 -30 23 -30 33 0 9 -9 35 -18 57 -18
38 -18 42 -1 86 10 26 21 76 25 111 6 58 9 64 38 78 28 14 31 19 31 60 0 41
-3 46 -32 60 -31 14 -33 17 -33 73 0 53 3 61 30 84 42 35 40 71 -5 112 -24 22
-35 40 -35 59 0 82 -74 212 -156 274 -103 78 -124 82 -431 86 l-271 4 9 30 c4
17 10 32 12 34 1 2 21 -3 42 -11 22 -8 61 -14 87 -15 38 0 54 5 79 28 28 25
32 36 38 98 6 63 11 77 54 136 26 36 91 115 144 174 182 200 267 314 279 373
14 67 -77 110 -123 59 -11 -13 -41 -54 -66 -93 -25 -38 -101 -131 -169 -205
-155 -172 -231 -275 -259 -350 -22 -62 -25 -65 -47 -51 -11 6 -4 43 32 182 51
202 66 294 66 423 l0 92 69 11 c131 20 219 88 261 201 19 51 21 73 18 251 -3
181 -5 200 -26 243 -51 104 -150 170 -265 176 -57 4 -72 9 -97 32 -23 22 -45
30 -88 35 -89 10 -276 54 -348 81 -79 29 -144 62 -230 114 -73 45 -133 53
-170 22z m201 -212 c6 -4 49 -23 96 -43 95 -40 233 -78 352 -97 l79 -13 -4
-286 c-5 -267 -7 -292 -30 -382 -36 -134 -109 -272 -201 -383 l-24 -28 -5 114
c-3 90 -9 123 -26 158 -32 68 -74 112 -133 145 -46 25 -69 30 -154 35 l-100 5
-3 37 c-2 26 -11 44 -29 58 -33 25 -54 25 -87 -1 -23 -18 -26 -28 -26 -79 0
-44 -4 -59 -16 -64 -29 -11 -160 -6 -172 6 -9 9 -12 73 -12 225 0 200 -1 214
-20 233 -23 23 -68 26 -96 6 -17 -13 -19 -31 -24 -218 l-5 -203 -120 -5 c-109
-5 -125 -8 -174 -35 -59 -33 -101 -78 -133 -145 -17 -35 -23 -68 -26 -158 l-5
-114 -24 28 c-92 110 -170 260 -204 395 -20 77 -22 116 -26 447 -3 199 -2 362
2 362 3 0 26 -13 49 -29 98 -68 256 -131 326 -131 62 0 107 49 140 155 7 22
16 44 20 48 4 5 46 -17 94 -48 167 -109 380 -195 483 -195 33 0 50 7 77 31 37
32 40 43 51 161 l7 68 46 -27 c26 -14 52 -29 57 -33z m-1505 -325 l0 -105 -40
0 c-51 0 -80 -27 -80 -73 0 -43 23 -64 78 -73 l42 -7 0 -108 0 -109 -33 0
c-43 0 -115 38 -141 73 -19 26 -21 45 -24 207 -3 191 1 213 51 261 30 29 54
38 105 38 l42 1 0 -105z m2313 79 c14 -10 35 -36 47 -56 20 -36 21 -50 18
-217 -3 -163 -5 -182 -24 -208 -26 -35 -98 -73 -141 -73 l-33 0 0 109 0 108
42 7 c55 9 78 30 78 73 0 46 -29 73 -80 73 l-40 0 0 106 0 106 53 -4 c31 -2
64 -12 80 -24z m-1367 -700 c82 -48 274 -44 346 7 27 19 40 21 121 17 104 -6
144 -21 179 -70 22 -31 23 -44 28 -234 4 -180 7 -204 24 -223 12 -13 31 -21
52 -21 55 0 200 136 293 273 18 27 34 47 36 45 15 -15 -130 -579 -200 -776 -4
-10 -11 -8 -31 7 -35 27 -69 27 -97 -1 -12 -13 -51 -74 -87 -135 -35 -62 -67
-113 -70 -113 -4 0 -19 22 -33 48 -33 62 -60 85 -96 85 -41 0 -91 -42 -210
-178 -58 -66 -108 -120 -111 -120 -3 0 -53 54 -111 120 -188 214 -233 228
-305 95 -15 -28 -30 -50 -34 -50 -3 0 -37 54 -74 120 -87 154 -119 177 -179
130 l-26 -21 -40 128 c-82 265 -152 529 -164 628 l-6 40 17 -25 c48 -71 145
-181 209 -237 59 -51 79 -63 107 -63 25 0 40 7 55 26 20 25 21 40 21 213 0
162 2 191 19 221 37 70 83 87 229 89 84 1 98 -2 138 -25z m-712 -1096 c28 -68
85 -96 148 -74 l37 13 64 -111 c67 -116 107 -156 156 -156 40 0 87 34 116 84
15 25 30 46 34 46 5 0 58 -58 120 -128 104 -121 141 -152 177 -152 8 0 101
-71 207 -158 105 -87 203 -165 217 -175 55 -38 120 -7 120 57 0 30 -9 42 -62
88 -48 41 -323 267 -347 284 -4 4 159 187 170 192 4 2 17 -14 27 -35 40 -77
101 -112 155 -89 43 18 59 38 126 153 45 78 61 97 76 95 81 -14 95 -13 124 7
16 12 36 37 43 57 l12 35 291 -3 290 -3 47 -27 c61 -36 105 -91 123 -152 23
-77 24 -76 -60 -76 -86 0 -115 -18 -115 -70 0 -52 29 -70 115 -70 l75 0 0 -65
0 -65 -65 0 c-75 0 -105 -20 -105 -70 0 -50 30 -70 106 -70 l67 0 -5 -58 c-4
-34 -17 -80 -32 -110 -32 -64 -33 -86 -1 -128 14 -18 25 -37 25 -43 0 -7 -27
-11 -68 -11 -79 0 -105 -18 -105 -70 0 -53 26 -70 110 -70 l73 0 0 -90 0 -90
-160 0 -160 0 0 349 0 350 -26 20 c-15 12 -34 21 -44 21 -10 0 -29 -9 -44 -21
l-26 -20 0 -305 c0 -167 -3 -304 -8 -304 -4 0 -79 59 -167 131 -88 72 -168
135 -177 140 -33 18 -76 10 -97 -17 -25 -32 -26 -52 -6 -81 12 -17 192 -170
294 -250 13 -10 -29 -12 -205 -13 l-222 0 -4 61 c-5 70 -28 99 -78 99 -50 0
-73 -29 -78 -99 l-4 -61 -243 0 -243 0 -4 61 c-5 70 -28 99 -78 99 -50 0 -73
-29 -78 -99 l-4 -61 -223 0 -223 0 -4 61 c-5 70 -28 99 -78 99 -50 0 -73 -29
-78 -99 l-4 -61 -224 0 -224 0 0 670 0 670 210 0 210 0 14 -32z m-584 -643 l0
-665 -95 0 -95 0 0 53 c0 51 1 53 32 62 65 19 64 111 -1 130 -32 9 -33 11 -28
51 2 24 16 57 31 76 33 43 33 66 0 129 -14 28 -24 52 -22 53 2 1 15 7 30 14
55 23 48 109 -10 127 -28 8 -32 14 -32 42 0 30 3 33 30 33 38 0 70 32 70 70 0
17 -9 39 -20 50 -11 11 -33 20 -50 20 -28 0 -30 2 -30 40 0 39 1 40 37 40 48
0 73 24 73 68 0 46 -24 72 -67 72 -38 0 -39 4 -18 54 24 57 115 138 163 146 1
0 2 -299 2 -665z"/>
<path d="M1960 3255 c-76 -34 -121 -105 -121 -189 0 -61 10 -91 46 -135 87
-102 254 -93 328 17 43 64 47 136 12 207 -37 76 -86 108 -169 112 -40 2 -73
-2 -96 -12z m127 -161 c15 -24 15 -29 2 -53 -28 -49 -99 -32 -99 24 0 55 67
75 97 29z"/>
<path d="M2979 3247 c-29 -16 -54 -40 -74 -72 -25 -41 -30 -59 -30 -114 0 -57
4 -72 30 -110 77 -113 243 -123 330 -20 36 44 46 74 46 135 0 155 -164 253
-302 181z m135 -143 c9 -8 16 -26 16 -39 0 -56 -71 -73 -99 -24 -13 24 -13 29
2 53 20 30 57 35 81 10z"/>
<path d="M2224 2466 c-43 -19 -101 -81 -116 -125 -19 -52 -18 -339 1 -374 29
-55 45 -57 451 -57 406 0 422 2 451 57 19 35 20 322 1 374 -16 45 -74 107
-118 125 -47 20 -625 19 -670 0z m134 -173 l3 -43 -60 0 c-64 0 -68 4 -50 44
13 29 45 46 79 43 22 -2 25 -7 28 -44z m260 0 l3 -43 -60 0 -61 0 0 38 c0 21
3 42 7 46 4 4 30 6 58 4 l50 -3 3 -42z m215 36 c23 -10 47 -46 47 -69 0 -6
-27 -10 -60 -10 l-60 0 0 38 c0 21 3 42 7 45 10 10 39 8 66 -4z m47 -249 c0
-20 -7 -20 -320 -20 -313 0 -320 0 -320 20 0 20 7 20 320 20 313 0 320 0 320
-20z"/>
<path d="M1454 1288 c-12 -5 -27 -21 -33 -34 -14 -32 -14 -196 0 -228 26 -55
112 -55 138 0 14 32 14 196 0 227 -11 24 -48 48 -72 46 -7 0 -22 -5 -33 -11z"/>
<path d="M2194 1058 c-12 -5 -27 -21 -33 -34 -14 -32 -14 -196 0 -228 26 -55
112 -55 138 0 14 32 14 196 0 227 -11 24 -48 48 -72 46 -7 0 -22 -5 -33 -11z"/>
<path d="M1744 1028 c-12 -5 -27 -21 -33 -34 -14 -32 -14 -196 0 -228 26 -55
112 -55 138 0 14 32 14 196 0 227 -11 24 -48 48 -72 46 -7 0 -22 -5 -33 -11z"/>
<path d="M2664 678 c-12 -5 -27 -21 -33 -34 -14 -32 -14 -196 0 -228 26 -55
112 -55 138 0 14 32 14 196 0 227 -11 24 -48 48 -72 46 -7 0 -22 -5 -33 -11z"/>
<path d="M2014 658 c-12 -5 -27 -21 -33 -34 -14 -32 -14 -196 0 -228 26 -55
112 -55 138 0 14 32 14 196 0 227 -11 24 -48 48 -72 46 -7 0 -22 -5 -33 -11z"/>
<path d="M1484 598 c-12 -5 -27 -21 -33 -34 -14 -32 -14 -196 0 -228 26 -55
112 -55 138 0 14 32 14 196 0 227 -11 24 -48 48 -72 46 -7 0 -22 -5 -33 -11z"/>
</g>
</svg>
